<svg xmlns="http://www.w3.org/2000/svg" width="149" height="14" fill="none"><path fill="#fff" d="m22.287.147-6.42 13.78H6.42L0 .146h4.797l6.347 13.78L17.49.146h4.797Zm5.018 3.39V5.6h10.258v3.095H27.305v1.916h10.258V14H22.951V.147h14.538v3.39H27.305Zm44.722 5.084-6.273-3.168v8.473H61.4V5.453L55.127 8.62V4.495L63.614.147l8.487 4.348-.074 4.126ZM95.2 7.074 88.117.147h5.83L98.3 4.495l4.354-4.348h5.756L101.252 7l7.158 6.853h-5.756L98.3 9.505l-4.354 4.348h-5.83l7.085-6.78Zm30.258 2.8v4.052h-16.236V4.421L113.65 0h11.808v4.053h-12.103V9.8l12.103.074Zm17.564-.516v4.568h-16.236V0h16.236l-4.427 4.053h-7.749V9.8h7.749v-.884h-6.716v-3.98h6.716l4.427 4.422Z"/><path fill="#fff" fill-rule="evenodd" d="M144.867 4.937v8.99h4.059v-8.99h-4.059Zm0-.884.074-.074 1.993-1.99L149 4.053V0h-4.059v4.053h-.074Z" clip-rule="evenodd"/><path fill="#fff" d="M87.45.147H72.912v3.39H87.45V.147Zm0 5.453H72.912v3.095H87.45V5.6Zm0 4.937H72.912v3.39H87.45v-3.39ZM49.592 8.621h4.944V4.495L54.462.147H38.448V14h6.273v-3.758l3.395 3.684h6.346l-4.87-5.305Z"/><path fill="#fff" fill-rule="evenodd" d="M144.941 0H149v4.053l-2.066-2.064-1.993 1.99V0Zm-1.919 0h-16.236v13.926h16.236V9.358l-4.427-4.421h-6.716v3.979h6.716V9.8h-7.749V4.053h7.749L143.022 0Zm-17.564 0H113.65l-4.428 4.421v9.505h16.236V9.874L113.355 9.8V4.053h12.103V0ZM22.951 14h14.612v-3.39H27.305V8.696h10.258V5.6H27.305V3.537h10.184V.147H22.951V14Zm15.497 0h6.273v-3.758l3.395 3.684h6.346l-4.87-5.305h4.944V4.495L54.462.147H38.448V14ZM144.94 3.979l-.074.074h.074v-.074ZM15.867 13.926 22.287.147H17.49l-6.346 13.78L4.797.146H0l6.42 13.78h9.447Zm56.16-5.305-6.273-3.168v8.473H61.4V5.453L55.127 8.62V4.495L63.614.147l8.487 4.348-.074 4.126ZM95.2 7.074 88.116.147h5.83L98.3 4.495l4.354-4.348h5.756L101.252 7l7.158 6.853h-5.756L98.3 9.505l-4.354 4.348h-5.83l7.085-6.78Zm49.666-2.137v8.99h4.059v-8.99h-4.059ZM87.45.147H72.912v3.39H87.45V.147Zm0 5.453H72.912v3.095H87.45V5.6Zm0 4.937H72.912v3.39H87.45v-3.39Z" clip-rule="evenodd"/></svg>