<svg width="700" height="178" viewBox="0 0 700 178" fill="none" xmlns="http://www.w3.org/2000/svg">
<g filter="url(#filter0_d_347_909)">
<rect x="1" y="44.3672" width="67.9227" height="66.6158" fill="#EF2917" stroke="#FFF6F6" stroke-width="2"/>
<g filter="url(#filter1_d_347_909)">
<path d="M8.91113 54.4717H27.8271L35.127 82.7822L42.395 54.4717H61.2476V101H49.5044V65.5166L40.3955 101H29.7632L20.686 65.5166V101H8.91113V54.4717Z" fill="white"/>
</g>
<rect x="84.6455" y="22.8022" width="70.5367" height="66.6158" fill="#EF2917" stroke="#FFF6F6" stroke-width="2"/>
<g filter="url(#filter2_d_347_909)">
<path d="M101.095 33.4717H139.625V43.4058H115.504V50.8008H137.879V60.2905H115.504V69.4629H140.323V80H101.095V33.4717Z" fill="white"/>
</g>
<rect x="170.905" y="86.1904" width="67.9227" height="66.6158" fill="#EF2917" stroke="#FFF6F6" stroke-width="2"/>
<g filter="url(#filter3_d_347_909)">
<path d="M182.142 142V95.4717H206.104C210.547 95.4717 213.943 95.8525 216.292 96.6143C218.641 97.376 220.534 98.7936 221.973 100.867C223.412 102.92 224.131 105.427 224.131 108.389C224.131 110.971 223.581 113.203 222.481 115.086C221.381 116.948 219.868 118.461 217.942 119.625C216.715 120.365 215.033 120.979 212.896 121.465C214.61 122.037 215.858 122.608 216.641 123.179C217.17 123.56 217.932 124.375 218.926 125.623C219.942 126.871 220.619 127.834 220.958 128.511L227.908 142H211.658L203.978 127.781C203.004 125.94 202.137 124.745 201.375 124.195C200.338 123.475 199.164 123.116 197.852 123.116H196.583V142H182.142ZM196.583 114.324H202.645C203.3 114.324 204.57 114.113 206.453 113.689C207.405 113.499 208.178 113.012 208.77 112.229C209.384 111.447 209.69 110.547 209.69 109.532C209.69 108.029 209.214 106.876 208.262 106.072C207.31 105.268 205.522 104.866 202.898 104.866H196.583V114.324Z" fill="white"/>
</g>
<rect x="431.883" y="42.1646" width="70.5367" height="66.6158" fill="#EF2917" stroke="#FFF6F6" stroke-width="2"/>
<g filter="url(#filter4_d_347_909)">
<path d="M448.095 51.4717H486.625V61.4058H462.504V68.8008H484.879V78.2905H462.504V87.4629H487.323V98H448.095V51.4717Z" fill="white"/>
</g>
<rect x="517.489" y="85.9482" width="67.9227" height="66.6158" fill="#EF2917" stroke="#FFF6F6" stroke-width="2"/>
<g filter="url(#filter5_d_347_909)">
<path d="M531.142 143V96.4717H555.104C559.547 96.4717 562.943 96.8525 565.292 97.6143C567.641 98.376 569.534 99.7936 570.973 101.867C572.412 103.92 573.131 106.427 573.131 109.389C573.131 111.971 572.581 114.203 571.481 116.086C570.381 117.948 568.868 119.461 566.942 120.625C565.715 121.365 564.033 121.979 561.896 122.465C563.61 123.037 564.858 123.608 565.641 124.179C566.17 124.56 566.932 125.375 567.926 126.623C568.942 127.871 569.619 128.834 569.958 129.511L576.908 143H560.658L552.978 128.781C552.004 126.94 551.137 125.745 550.375 125.195C549.338 124.475 548.164 124.116 546.852 124.116H545.583V143H531.142ZM545.583 115.324H551.645C552.3 115.324 553.57 115.113 555.453 114.689C556.405 114.499 557.178 114.012 557.77 113.229C558.384 112.447 558.69 111.547 558.69 110.532C558.69 109.029 558.214 107.876 557.262 107.072C556.31 106.268 554.522 105.866 551.898 105.866H545.583V115.324Z" fill="white"/>
</g>
<rect x="254.553" y="53.5161" width="69.2297" height="66.6158" fill="#EF2917" stroke="#FFF6F6" stroke-width="2"/>
<g filter="url(#filter6_d_347_909)">
<path d="M297.106 63.4717H311.451V91.2109C311.451 93.9616 311.018 96.5641 310.15 99.0186C309.304 101.452 307.96 103.589 306.119 105.43C304.3 107.249 302.385 108.529 300.375 109.27C297.582 110.307 294.228 110.825 290.314 110.825C288.05 110.825 285.574 110.667 282.887 110.349C280.221 110.032 277.989 109.408 276.19 108.477C274.392 107.524 272.741 106.181 271.239 104.446C269.758 102.711 268.742 100.923 268.192 99.082C267.303 96.1198 266.859 93.4961 266.859 91.2109V63.4717H281.205V91.8774C281.205 94.4165 281.903 96.4054 283.299 97.8442C284.717 99.2619 286.674 99.9707 289.171 99.9707C291.647 99.9707 293.583 99.2725 294.979 97.876C296.397 96.4583 297.106 94.4588 297.106 91.8774V63.4717Z" fill="white"/>
</g>
<rect x="-1" y="1" width="70.5367" height="71.8436" transform="matrix(-1 0 0 1 670.67 52.9272)" fill="#EF2917" stroke="#FFF6F6" stroke-width="2"/>
<g filter="url(#filter7_d_347_909)">
<path d="M614.146 67.4717H657.849V78.9609H643.186V114H628.809V78.9609H614.146V67.4717Z" fill="white"/>
</g>
<circle cx="70.0619" cy="110.161" r="8.82203" transform="rotate(-7.82349 70.0619 110.161)" fill="#F7C548"/>
<path d="M63.7734 105.669L67.8097 105.114L70.1974 110.941L70.9182 104.687L74.941 104.134L76.3051 114.062L73.7994 114.407L72.7591 106.835L71.8557 114.674L69.587 114.985L66.6098 107.68L67.6501 115.252L65.1376 115.597L63.7734 105.669Z" fill="black"/>
<circle cx="86.3978" cy="21.9409" r="8.82203" transform="rotate(-7.82349 86.3978 21.9409)" fill="#F7C548"/>
<path d="M89.2343 17.8192L92.2253 18.5945L90.7262 24.378C90.5776 24.9515 90.3465 25.4707 90.033 25.9355C89.725 26.3971 89.3294 26.7701 88.8461 27.0544C88.3684 27.3354 87.8999 27.4988 87.4408 27.5446C86.8025 27.6098 86.0752 27.5367 85.2591 27.3251C84.7871 27.2028 84.2795 27.0359 83.7364 26.8245C83.1977 26.6142 82.766 26.3635 82.4414 26.0722C82.1178 25.7764 81.8464 25.4071 81.6269 24.9642C81.4119 24.5224 81.2967 24.0947 81.2815 23.6812C81.2563 23.0156 81.3055 22.4445 81.429 21.9681L82.9281 16.1846L85.9191 16.9599L84.384 22.8823C84.2467 23.4117 84.2848 23.8641 84.4982 24.2396C84.7172 24.6118 85.0869 24.8653 85.6075 25.0003C86.1236 25.1341 86.565 25.0931 86.9317 24.8774C87.3038 24.6585 87.5597 24.2799 87.6992 23.7417L89.2343 17.8192Z" fill="black"/>
<circle cx="156.183" cy="88.4565" r="8.82203" transform="rotate(-31.1907 156.183 88.4565)" fill="#F7C548"/>
<path d="M150.651 84.6009L153.711 84.1252L154.293 87.8674L156.92 83.6265L160.986 82.9944L157.96 87.2905L162.687 92.8718L158.918 93.4576L156.198 89.7089L154.874 91.6096L155.25 94.0278L152.19 94.5034L150.651 84.6009Z" fill="black"/>
<circle cx="504.069" cy="41.1635" r="8.82203" transform="rotate(-31.1907 504.069 41.1635)" fill="#F7C548"/>
<path d="M498.65 37.6009L501.71 37.1252L502.292 40.8674L504.919 36.6265L508.985 35.9944L505.959 40.2905L510.686 45.8718L506.917 46.4576L504.197 42.7089L502.874 44.6096L503.249 47.0278L500.189 47.5034L498.65 37.6009Z" fill="black"/>
<circle cx="517.138" cy="116.967" r="8.82203" transform="rotate(19.6472 517.138 116.967)" fill="#F7C548"/>
<path d="M515.598 110.075L518.154 112.376L517.393 116.244L521.161 115.084L523.701 117.371L516.908 119.092L514.099 122.211L511.793 120.134L514.602 117.015L515.598 110.075Z" fill="black"/>
<circle cx="672.474" cy="95.8596" r="8.82203" transform="rotate(-37.0035 672.474 95.8596)" fill="#F7C548"/>
<path d="M665.553 93.578L668.88 92.7085L671.693 95.4706L672.795 91.6851L676.102 90.8207L673.805 97.441L674.867 101.502L671.864 102.287L670.803 98.2258L665.553 93.578Z" fill="black"/>
<circle cx="584.787" cy="153.246" r="8.82203" transform="rotate(-20.1942 584.787 153.246)" fill="#F7C548"/>
<path d="M580.995 149L589.753 149.33L589.677 151.332L583.841 156.981L589.661 157.2L589.58 159.352L580.078 158.994L580.156 156.917L585.929 151.327L580.915 151.138L580.995 149Z" fill="black"/>
<circle cx="169.251" cy="125.051" r="8.82203" transform="rotate(-31.1907 169.251 125.051)" fill="#F7C548"/>
<path d="M163.65 121.601L166.71 121.125L167.249 124.59L170.592 124.071L170.054 120.605L173.127 120.128L174.666 130.03L171.593 130.508L170.97 126.502L167.627 127.022L168.249 131.028L165.189 131.503L163.65 121.601Z" fill="black"/>
<circle cx="253.463" cy="52.428" r="8.82203" transform="rotate(-5.30668 253.463 52.428)" fill="#F7C548"/>
<path d="M251.484 47.0747L254.586 47.0091L254.799 57.0283L251.696 57.094L251.484 47.0747Z" fill="black"/>
<rect x="343.228" y="85.2939" width="69.2297" height="66.6158" fill="#EF2917" stroke="#FFF6F6" stroke-width="2"/>
<g filter="url(#filter8_d_347_909)">
<path d="M352.907 94.4717H368.872L378.266 110.182L387.661 94.4717H403.53L385.439 121.513V141H371.03V121.513L352.907 94.4717Z" fill="white"/>
</g>
<circle cx="377.718" cy="152.821" r="8.82203" transform="rotate(3.52637 377.718 152.821)" fill="#F7C548"/>
<path d="M373.217 148.053L382.547 149.302L382.219 151.754L379.089 151.336L378.088 158.816L375.019 158.405L376.02 150.925L372.889 150.506L373.217 148.053Z" fill="black"/>
<rect x="570.5" y="33.5" width="102" height="13" fill="white" stroke="black"/>
<path d="M575.414 43V34.4102H577.124L579.158 40.4922C579.345 41.0586 579.482 41.4824 579.568 41.7637C579.665 41.4512 579.818 40.9922 580.025 40.3867L582.081 34.4102H583.611V43H582.515V35.8105L580.019 43H578.994L576.509 35.6875V43H575.414ZM588.73 40.9961L589.82 41.1309C589.648 41.7676 589.329 42.2617 588.865 42.6133C588.4 42.9648 587.806 43.1406 587.083 43.1406C586.173 43.1406 585.45 42.8613 584.915 42.3027C584.384 41.7402 584.118 40.9531 584.118 39.9414C584.118 38.8945 584.388 38.082 584.927 37.5039C585.466 36.9258 586.165 36.6367 587.025 36.6367C587.857 36.6367 588.536 36.9199 589.064 37.4863C589.591 38.0527 589.855 38.8496 589.855 39.877C589.855 39.9395 589.853 40.0332 589.849 40.1582H585.208C585.247 40.8418 585.441 41.3652 585.788 41.7285C586.136 42.0918 586.57 42.2734 587.089 42.2734C587.476 42.2734 587.806 42.1719 588.079 41.9688C588.353 41.7656 588.57 41.4414 588.73 40.9961ZM585.267 39.291H588.741C588.695 38.7676 588.562 38.375 588.343 38.1133C588.007 37.707 587.572 37.5039 587.036 37.5039C586.552 37.5039 586.144 37.666 585.812 37.9902C585.484 38.3145 585.302 38.748 585.267 39.291ZM590.298 43V36.7773H591.247V37.7207C591.489 37.2793 591.712 36.9883 591.915 36.8477C592.122 36.707 592.349 36.6367 592.595 36.6367C592.95 36.6367 593.312 36.75 593.679 36.9766L593.316 37.9551C593.058 37.8027 592.8 37.7266 592.542 37.7266C592.312 37.7266 592.105 37.7969 591.921 37.9375C591.737 38.0742 591.607 38.2656 591.528 38.5117C591.411 38.8867 591.353 39.2969 591.353 39.7422V43H590.298ZM597.544 43V42.0859C597.06 42.7891 596.401 43.1406 595.569 43.1406C595.202 43.1406 594.858 43.0703 594.538 42.9297C594.222 42.7891 593.985 42.6133 593.829 42.4023C593.677 42.1875 593.569 41.9258 593.507 41.6172C593.464 41.4102 593.442 41.082 593.442 40.6328V36.7773H594.497V40.2285C594.497 40.7793 594.519 41.1504 594.561 41.3418C594.628 41.6191 594.769 41.8379 594.983 41.998C595.198 42.1543 595.464 42.2324 595.78 42.2324C596.097 42.2324 596.394 42.1523 596.671 41.9922C596.948 41.8281 597.144 41.6074 597.257 41.3301C597.374 41.0488 597.433 40.6426 597.433 40.1113V36.7773H598.487V43H597.544ZM599.259 45.3965L599.141 44.4062C599.372 44.4688 599.573 44.5 599.745 44.5C599.979 44.5 600.167 44.4609 600.307 44.3828C600.448 44.3047 600.563 44.1953 600.653 44.0547C600.72 43.9492 600.827 43.6875 600.975 43.2695C600.995 43.2109 601.026 43.125 601.069 43.0117L598.708 36.7773H599.845L601.139 40.3809C601.307 40.8379 601.458 41.3184 601.591 41.8223C601.712 41.3379 601.856 40.8652 602.024 40.4043L603.354 36.7773H604.409L602.042 43.1055C601.788 43.7891 601.591 44.2598 601.45 44.5176C601.263 44.8652 601.048 45.1191 600.805 45.2793C600.563 45.4434 600.274 45.5254 599.938 45.5254C599.735 45.5254 599.509 45.4824 599.259 45.3965ZM608.725 40.9961L609.815 41.1309C609.643 41.7676 609.325 42.2617 608.86 42.6133C608.395 42.9648 607.801 43.1406 607.079 43.1406C606.169 43.1406 605.446 42.8613 604.911 42.3027C604.38 41.7402 604.114 40.9531 604.114 39.9414C604.114 38.8945 604.383 38.082 604.923 37.5039C605.462 36.9258 606.161 36.6367 607.02 36.6367C607.852 36.6367 608.532 36.9199 609.059 37.4863C609.587 38.0527 609.85 38.8496 609.85 39.877C609.85 39.9395 609.848 40.0332 609.844 40.1582H605.204C605.243 40.8418 605.436 41.3652 605.784 41.7285C606.131 42.0918 606.565 42.2734 607.085 42.2734C607.471 42.2734 607.801 42.1719 608.075 41.9688C608.348 41.7656 608.565 41.4414 608.725 40.9961ZM605.262 39.291H608.737C608.69 38.7676 608.557 38.375 608.339 38.1133C608.003 37.707 607.567 37.5039 607.032 37.5039C606.548 37.5039 606.139 37.666 605.807 37.9902C605.479 38.3145 605.298 38.748 605.262 39.291ZM610.293 43V36.7773H611.243V37.7207C611.485 37.2793 611.708 36.9883 611.911 36.8477C612.118 36.707 612.344 36.6367 612.59 36.6367C612.946 36.6367 613.307 36.75 613.674 36.9766L613.311 37.9551C613.053 37.8027 612.795 37.7266 612.538 37.7266C612.307 37.7266 612.1 37.7969 611.916 37.9375C611.733 38.0742 611.602 38.2656 611.524 38.5117C611.407 38.8867 611.348 39.2969 611.348 39.7422V43H610.293ZM615.764 42.0566L615.916 42.9883C615.619 43.0508 615.354 43.082 615.119 43.082C614.737 43.082 614.44 43.0215 614.229 42.9004C614.018 42.7793 613.869 42.6211 613.784 42.4258C613.698 42.2266 613.655 41.8105 613.655 41.1777V37.5977H612.881V36.7773H613.655V35.2363L614.703 34.6035V36.7773H615.764V37.5977H614.703V41.2363C614.703 41.5371 614.721 41.7305 614.756 41.8164C614.795 41.9023 614.856 41.9707 614.938 42.0215C615.024 42.0723 615.145 42.0977 615.301 42.0977C615.418 42.0977 615.573 42.084 615.764 42.0566ZM618.561 43V34.4102H620.271L622.305 40.4922C622.492 41.0586 622.629 41.4824 622.715 41.7637C622.812 41.4512 622.965 40.9922 623.172 40.3867L625.229 34.4102H626.758V43H625.662V35.8105L623.166 43H622.141L619.656 35.6875V43H618.561ZM631.695 43V42.0859C631.211 42.7891 630.553 43.1406 629.721 43.1406C629.353 43.1406 629.01 43.0703 628.689 42.9297C628.373 42.7891 628.137 42.6133 627.98 42.4023C627.828 42.1875 627.721 41.9258 627.658 41.6172C627.615 41.4102 627.594 41.082 627.594 40.6328V36.7773H628.648V40.2285C628.648 40.7793 628.67 41.1504 628.713 41.3418C628.779 41.6191 628.92 41.8379 629.135 41.998C629.349 42.1543 629.615 42.2324 629.931 42.2324C630.248 42.2324 630.545 42.1523 630.822 41.9922C631.099 41.8281 631.295 41.6074 631.408 41.3301C631.525 41.0488 631.584 40.6426 631.584 40.1113V36.7773H632.639V43H631.695ZM633.463 43V34.4102H634.517V39.3086L637.013 36.7773H638.379L636 39.0859L638.619 43H637.318L635.261 39.8184L634.517 40.5332V43H633.463ZM638.617 43V34.4102H639.671V37.4922C640.164 36.9219 640.785 36.6367 641.535 36.6367C641.996 36.6367 642.396 36.7285 642.736 36.9121C643.076 37.0918 643.318 37.3418 643.462 37.6621C643.611 37.9824 643.685 38.4473 643.685 39.0566V43H642.63V39.0566C642.63 38.5293 642.515 38.1465 642.285 37.9082C642.058 37.666 641.736 37.5449 641.318 37.5449C641.005 37.5449 640.71 37.627 640.433 37.791C640.16 37.9512 639.964 38.1699 639.847 38.4473C639.73 38.7246 639.671 39.1074 639.671 39.5957V43H638.617ZM644.462 35.623V34.4102H645.517V35.623H644.462ZM644.462 43V36.7773H645.517V43H644.462ZM648.591 42.0566L648.743 42.9883C648.446 43.0508 648.181 43.082 647.946 43.082C647.564 43.082 647.267 43.0215 647.056 42.9004C646.845 42.7793 646.696 42.6211 646.611 42.4258C646.525 42.2266 646.482 41.8105 646.482 41.1777V37.5977H645.708V36.7773H646.482V35.2363L647.53 34.6035V36.7773H648.591V37.5977H647.53V41.2363C647.53 41.5371 647.548 41.7305 647.583 41.8164C647.622 41.9023 647.683 41.9707 647.765 42.0215C647.851 42.0723 647.972 42.0977 648.128 42.0977C648.245 42.0977 648.4 42.084 648.591 42.0566ZM648.794 43V34.4102H649.849V39.3086L652.345 36.7773H653.71L651.331 39.0859L653.95 43H652.649L650.593 39.8184L649.849 40.5332V43H648.794ZM653.901 45.3965L653.784 44.4062C654.015 44.4688 654.216 44.5 654.388 44.5C654.622 44.5 654.809 44.4609 654.95 44.3828C655.091 44.3047 655.206 44.1953 655.296 44.0547C655.362 43.9492 655.47 43.6875 655.618 43.2695C655.638 43.2109 655.669 43.125 655.712 43.0117L653.35 36.7773H654.487L655.782 40.3809C655.95 40.8379 656.1 41.3184 656.233 41.8223C656.354 41.3379 656.499 40.8652 656.667 40.4043L657.997 36.7773H659.052L656.684 43.1055C656.431 43.7891 656.233 44.2598 656.093 44.5176C655.905 44.8652 655.69 45.1191 655.448 45.2793C655.206 45.4434 654.917 45.5254 654.581 45.5254C654.378 45.5254 654.151 45.4824 653.901 45.3965ZM658.551 43V42.1445L662.512 37.5977C662.063 37.6211 661.667 37.6328 661.323 37.6328H658.786V36.7773H663.872V37.4746L660.503 41.4238L659.852 42.1445C660.325 42.1094 660.768 42.0918 661.182 42.0918H664.059V43H658.551ZM664.221 45.3965L664.104 44.4062C664.335 44.4688 664.536 44.5 664.708 44.5C664.942 44.5 665.129 44.4609 665.27 44.3828C665.411 44.3047 665.526 44.1953 665.616 44.0547C665.682 43.9492 665.79 43.6875 665.938 43.2695C665.958 43.2109 665.989 43.125 666.032 43.0117L663.67 36.7773H664.807L666.102 40.3809C666.27 40.8379 666.42 41.3184 666.553 41.8223C666.674 41.3379 666.819 40.8652 666.987 40.4043L668.317 36.7773H669.372L667.004 43.1055C666.751 43.7891 666.553 44.2598 666.413 44.5176C666.225 44.8652 666.01 45.1191 665.768 45.2793C665.526 45.4434 665.237 45.5254 664.901 45.5254C664.698 45.5254 664.471 45.4824 664.221 45.3965Z" fill="black"/>
</g>
<defs>
<filter id="filter0_d_347_909" x="0" y="0" width="708" height="185.147" filterUnits="userSpaceOnUse" color-interpolation-filters="sRGB">
<feFlood flood-opacity="0" result="BackgroundImageFix"/>
<feColorMatrix in="SourceAlpha" type="matrix" values="0 0 0 0 0 0 0 0 0 0 0 0 0 0 0 0 0 0 127 0" result="hardAlpha"/>
<feOffset dx="4" dy="4"/>
<feGaussianBlur stdDeviation="2"/>
<feComposite in2="hardAlpha" operator="out"/>
<feColorMatrix type="matrix" values="0 0 0 0 0 0 0 0 0 0 0 0 0 0 0 0 0 0 0.35 0"/>
<feBlend mode="normal" in2="BackgroundImageFix" result="effect1_dropShadow_347_909"/>
<feBlend mode="normal" in="SourceGraphic" in2="effect1_dropShadow_347_909" result="shape"/>
</filter>
<filter id="filter1_d_347_909" x="8.91113" y="54.4717" width="54.3369" height="48.5283" filterUnits="userSpaceOnUse" color-interpolation-filters="sRGB">
<feFlood flood-opacity="0" result="BackgroundImageFix"/>
<feColorMatrix in="SourceAlpha" type="matrix" values="0 0 0 0 0 0 0 0 0 0 0 0 0 0 0 0 0 0 127 0" result="hardAlpha"/>
<feOffset dx="2" dy="2"/>
<feComposite in2="hardAlpha" operator="out"/>
<feColorMatrix type="matrix" values="0 0 0 0 0 0 0 0 0 0 0 0 0 0 0 0 0 0 1 0"/>
<feBlend mode="normal" in2="BackgroundImageFix" result="effect1_dropShadow_347_909"/>
<feBlend mode="normal" in="SourceGraphic" in2="effect1_dropShadow_347_909" result="shape"/>
</filter>
<filter id="filter2_d_347_909" x="101.095" y="33.4717" width="41.2285" height="48.5283" filterUnits="userSpaceOnUse" color-interpolation-filters="sRGB">
<feFlood flood-opacity="0" result="BackgroundImageFix"/>
<feColorMatrix in="SourceAlpha" type="matrix" values="0 0 0 0 0 0 0 0 0 0 0 0 0 0 0 0 0 0 127 0" result="hardAlpha"/>
<feOffset dx="2" dy="2"/>
<feComposite in2="hardAlpha" operator="out"/>
<feColorMatrix type="matrix" values="0 0 0 0 0 0 0 0 0 0 0 0 0 0 0 0 0 0 1 0"/>
<feBlend mode="normal" in2="BackgroundImageFix" result="effect1_dropShadow_347_909"/>
<feBlend mode="normal" in="SourceGraphic" in2="effect1_dropShadow_347_909" result="shape"/>
</filter>
<filter id="filter3_d_347_909" x="182.142" y="95.4717" width="47.7666" height="48.5283" filterUnits="userSpaceOnUse" color-interpolation-filters="sRGB">
<feFlood flood-opacity="0" result="BackgroundImageFix"/>
<feColorMatrix in="SourceAlpha" type="matrix" values="0 0 0 0 0 0 0 0 0 0 0 0 0 0 0 0 0 0 127 0" result="hardAlpha"/>
<feOffset dx="2" dy="2"/>
<feComposite in2="hardAlpha" operator="out"/>
<feColorMatrix type="matrix" values="0 0 0 0 0 0 0 0 0 0 0 0 0 0 0 0 0 0 1 0"/>
<feBlend mode="normal" in2="BackgroundImageFix" result="effect1_dropShadow_347_909"/>
<feBlend mode="normal" in="SourceGraphic" in2="effect1_dropShadow_347_909" result="shape"/>
</filter>
<filter id="filter4_d_347_909" x="448.095" y="51.4717" width="41.2285" height="48.5283" filterUnits="userSpaceOnUse" color-interpolation-filters="sRGB">
<feFlood flood-opacity="0" result="BackgroundImageFix"/>
<feColorMatrix in="SourceAlpha" type="matrix" values="0 0 0 0 0 0 0 0 0 0 0 0 0 0 0 0 0 0 127 0" result="hardAlpha"/>
<feOffset dx="2" dy="2"/>
<feComposite in2="hardAlpha" operator="out"/>
<feColorMatrix type="matrix" values="0 0 0 0 0 0 0 0 0 0 0 0 0 0 0 0 0 0 1 0"/>
<feBlend mode="normal" in2="BackgroundImageFix" result="effect1_dropShadow_347_909"/>
<feBlend mode="normal" in="SourceGraphic" in2="effect1_dropShadow_347_909" result="shape"/>
</filter>
<filter id="filter5_d_347_909" x="531.142" y="96.4717" width="47.7666" height="48.5283" filterUnits="userSpaceOnUse" color-interpolation-filters="sRGB">
<feFlood flood-opacity="0" result="BackgroundImageFix"/>
<feColorMatrix in="SourceAlpha" type="matrix" values="0 0 0 0 0 0 0 0 0 0 0 0 0 0 0 0 0 0 127 0" result="hardAlpha"/>
<feOffset dx="2" dy="2"/>
<feComposite in2="hardAlpha" operator="out"/>
<feColorMatrix type="matrix" values="0 0 0 0 0 0 0 0 0 0 0 0 0 0 0 0 0 0 1 0"/>
<feBlend mode="normal" in2="BackgroundImageFix" result="effect1_dropShadow_347_909"/>
<feBlend mode="normal" in="SourceGraphic" in2="effect1_dropShadow_347_909" result="shape"/>
</filter>
<filter id="filter6_d_347_909" x="266.859" y="63.4717" width="46.5918" height="49.3535" filterUnits="userSpaceOnUse" color-interpolation-filters="sRGB">
<feFlood flood-opacity="0" result="BackgroundImageFix"/>
<feColorMatrix in="SourceAlpha" type="matrix" values="0 0 0 0 0 0 0 0 0 0 0 0 0 0 0 0 0 0 127 0" result="hardAlpha"/>
<feOffset dx="2" dy="2"/>
<feComposite in2="hardAlpha" operator="out"/>
<feColorMatrix type="matrix" values="0 0 0 0 0 0 0 0 0 0 0 0 0 0 0 0 0 0 1 0"/>
<feBlend mode="normal" in2="BackgroundImageFix" result="effect1_dropShadow_347_909"/>
<feBlend mode="normal" in="SourceGraphic" in2="effect1_dropShadow_347_909" result="shape"/>
</filter>
<filter id="filter7_d_347_909" x="614.146" y="67.4717" width="45.7041" height="48.5283" filterUnits="userSpaceOnUse" color-interpolation-filters="sRGB">
<feFlood flood-opacity="0" result="BackgroundImageFix"/>
<feColorMatrix in="SourceAlpha" type="matrix" values="0 0 0 0 0 0 0 0 0 0 0 0 0 0 0 0 0 0 127 0" result="hardAlpha"/>
<feOffset dx="2" dy="2"/>
<feComposite in2="hardAlpha" operator="out"/>
<feColorMatrix type="matrix" values="0 0 0 0 0 0 0 0 0 0 0 0 0 0 0 0 0 0 1 0"/>
<feBlend mode="normal" in2="BackgroundImageFix" result="effect1_dropShadow_347_909"/>
<feBlend mode="normal" in="SourceGraphic" in2="effect1_dropShadow_347_909" result="shape"/>
</filter>
<filter id="filter8_d_347_909" x="352.907" y="94.4717" width="52.623" height="48.5283" filterUnits="userSpaceOnUse" color-interpolation-filters="sRGB">
<feFlood flood-opacity="0" result="BackgroundImageFix"/>
<feColorMatrix in="SourceAlpha" type="matrix" values="0 0 0 0 0 0 0 0 0 0 0 0 0 0 0 0 0 0 127 0" result="hardAlpha"/>
<feOffset dx="2" dy="2"/>
<feComposite in2="hardAlpha" operator="out"/>
<feColorMatrix type="matrix" values="0 0 0 0 0 0 0 0 0 0 0 0 0 0 0 0 0 0 1 0"/>
<feBlend mode="normal" in2="BackgroundImageFix" result="effect1_dropShadow_347_909"/>
<feBlend mode="normal" in="SourceGraphic" in2="effect1_dropShadow_347_909" result="shape"/>
</filter>
</defs>
</svg>
