<svg width="59" height="61" viewBox="0 0 59 61" fill="none" xmlns="http://www.w3.org/2000/svg">
<g filter="url(#filter0_di_347_1001)">
<mask id="path-1-outside-1_347_1001" maskUnits="userSpaceOnUse" x="0.283349" y="-0.613211" width="51.1583" height="51.1583" fill="black">
<rect fill="white" x="0.283349" y="-0.613211" width="51.1583" height="51.1583"/>
<path d="M17.2109 42.4239C15.1233 42.3224 13.9901 41.9714 13.2366 41.6748C12.2382 41.2825 11.527 40.817 10.7791 40.0655C10.0312 39.314 9.56905 38.5999 9.18504 37.599C8.89313 36.8437 8.54919 35.7084 8.46073 33.6202C8.3634 31.3629 8.34464 30.6856 8.36241 24.9676C8.38019 19.2495 8.40525 18.5734 8.51348 16.3147C8.61493 14.227 8.968 13.096 9.26252 12.3404C9.65483 11.342 10.1214 10.6308 10.8719 9.8818C11.6234 9.13494 12.3375 8.67178 13.3394 8.28777C14.0947 7.99587 15.23 7.65193 17.3182 7.56346C19.5766 7.46718 20.2549 7.44842 25.9708 7.46619C31.6889 7.48397 32.365 7.50903 34.6237 7.61727C36.7114 7.71871 37.8424 8.07178 38.598 8.3663C39.5964 8.75652 40.3076 9.22412 41.0556 9.97564C41.8035 10.7272 42.2635 11.4423 42.6496 12.4431C42.9415 13.1985 43.2854 14.3338 43.3739 16.422C43.4702 18.6814 43.4889 19.3576 43.4712 25.0757C43.4534 30.7916 43.4304 31.4698 43.3201 33.7286C43.2186 35.8162 42.8656 36.9493 42.5711 37.7028C42.1787 38.7012 41.7132 39.4125 40.9617 40.1593C40.2102 40.9062 39.495 41.3673 38.4942 41.7534C37.7389 42.0453 36.6036 42.3892 34.5154 42.4777C32.2581 42.574 31.5798 42.5927 25.8617 42.5749C20.1457 42.5572 19.4675 42.5352 17.2109 42.4239"/>
</mask>
<path d="M13.2366 41.6748L15.9691 34.733L15.965 34.7314L13.2366 41.6748ZM9.18504 37.599L16.1502 34.9265L16.147 34.9181L16.1437 34.9098L9.18504 37.599ZM8.46073 33.6202L15.9143 33.3044L15.9141 33.2988L8.46073 33.6202ZM8.51348 16.3147L1.062 15.9526L1.06176 15.9576L8.51348 16.3147ZM9.26252 12.3404L2.31905 9.61205L2.31532 9.62154L2.31161 9.63104L9.26252 12.3404ZM10.8719 9.8818L5.61308 4.59022L5.60755 4.59571L5.60204 4.60121L10.8719 9.8818ZM13.3394 8.28777L16.0094 15.2539L16.019 15.2502L16.0287 15.2465L13.3394 8.28777ZM17.3182 7.56346L17.634 15.0171L17.636 15.017L17.3182 7.56346ZM34.6237 7.61727L34.9858 0.165782L34.9808 0.165542L34.6237 7.61727ZM38.598 8.3663L41.3138 1.41789L41.3074 1.41539L38.598 8.3663ZM42.6496 12.4431L35.6893 15.1283L35.6909 15.1324L42.6496 12.4431ZM43.3739 16.422L35.9203 16.7378L35.9204 16.7396L43.3739 16.422ZM43.3201 33.7286L35.8687 33.3646L35.8686 33.3665L43.3201 33.7286ZM42.5711 37.7028L49.5145 40.4312L49.5194 40.4186L42.5711 37.7028ZM38.4942 41.7534L35.8091 34.7931L35.8049 34.7947L38.4942 41.7534ZM34.5154 42.4777L34.1996 35.0241L34.1974 35.0242L34.5154 42.4777ZM17.2109 42.4239L17.573 34.9724C16.8829 34.9389 16.4862 34.8709 16.2942 34.8295C16.1278 34.7937 16.0486 34.7643 15.9691 34.733L13.2366 41.6748L10.5041 48.6167C12.0113 49.2099 13.9449 49.7342 16.8488 49.8754L17.2109 42.4239ZM13.2366 41.6748L15.965 34.7314C15.9025 34.7068 15.8862 34.6975 15.9014 34.7052C15.9187 34.714 15.9549 34.7336 16.0006 34.7635C16.0464 34.7935 16.0812 34.8203 16.1004 34.8363C16.1179 34.8508 16.1081 34.8443 16.067 34.803L10.7791 40.0655L5.49114 45.328C6.97669 46.8207 8.56271 47.8538 10.5083 48.6183L13.2366 41.6748ZM10.7791 40.0655L16.067 34.803C16.0262 34.7621 16.0204 34.7528 16.0355 34.7713C16.0522 34.7915 16.0798 34.8278 16.1107 34.8755C16.1415 34.9233 16.1622 34.9617 16.1722 34.9818C16.181 34.9997 16.1731 34.9861 16.1502 34.9265L9.18504 37.599L2.21987 40.2715C2.97349 42.2356 4.00414 43.8338 5.49114 45.328L10.7791 40.0655ZM9.18504 37.599L16.1437 34.9098C16.1129 34.8301 16.0841 34.7507 16.0493 34.5841C16.0091 34.3918 15.9436 33.9947 15.9143 33.3044L8.46073 33.6202L1.00714 33.9359C1.13019 36.8406 1.64246 38.7775 2.22634 40.2883L9.18504 37.599ZM8.46073 33.6202L15.9141 33.2988C15.8244 31.2184 15.805 30.6799 15.8227 24.9908L8.36241 24.9676L0.902174 24.9444C0.884307 30.6913 0.902425 31.5074 1.00738 33.9415L8.46073 33.6202ZM8.36241 24.9676L15.8227 24.9908C15.8403 19.3084 15.865 18.7632 15.9652 16.6717L8.51348 16.3147L1.06176 15.9576C0.945508 18.3836 0.920062 19.1905 0.902174 24.9444L8.36241 24.9676ZM8.51348 16.3147L15.965 16.6768C15.9983 15.99 16.0663 15.5947 16.1079 15.4022C16.144 15.2349 16.1749 15.1486 16.2134 15.0497L9.26252 12.3404L2.31161 9.63104C1.73387 11.1133 1.20374 13.0357 1.062 15.9526L8.51348 16.3147ZM9.26252 12.3404L16.206 15.0687C16.2301 15.0074 16.2391 14.9916 16.2314 15.0069C16.2226 15.0244 16.2032 15.06 16.1739 15.1048C16.1446 15.1496 16.1187 15.183 16.104 15.2007C16.0909 15.2166 16.0988 15.2052 16.1417 15.1624L10.8719 9.8818L5.60204 4.60121C4.11941 6.08081 3.08515 7.66236 2.31905 9.61205L9.26252 12.3404ZM10.8719 9.8818L16.1306 15.1734C16.1726 15.1317 16.1826 15.1252 16.165 15.1396C16.1455 15.1556 16.1099 15.1828 16.0624 15.2135C16.0151 15.2441 15.9766 15.2648 15.9562 15.275C15.9379 15.284 15.9508 15.2763 16.0094 15.2539L13.3394 8.28777L10.6693 1.32167C8.69911 2.07684 7.10283 3.1097 5.61308 4.59022L10.8719 9.8818ZM13.3394 8.28777L16.0287 15.2465C16.1083 15.2157 16.1877 15.1868 16.3543 15.152C16.5466 15.1118 16.9437 15.0463 17.634 15.0171L17.3182 7.56346L17.0025 0.109875C14.0978 0.232926 12.1609 0.745194 10.6501 1.32908L13.3394 8.28777ZM17.3182 7.56346L17.636 15.017C19.7197 14.9281 20.2609 14.9088 25.9477 14.9264L25.9708 7.46619L25.994 0.00595532C20.2488 -0.011906 19.4335 0.00623308 17.0005 0.109961L17.3182 7.56346ZM25.9708 7.46619L25.9477 14.9264C31.63 14.9441 32.1752 14.9688 34.2667 15.069L34.6237 7.61727L34.9808 0.165542C32.5548 0.0492889 31.7479 0.0238433 25.994 0.00595532L25.9708 7.46619ZM34.6237 7.61727L34.2616 15.0687C34.9484 15.1021 35.3437 15.1701 35.5362 15.2117C35.7035 15.2478 35.7898 15.2787 35.8887 15.3172L38.598 8.3663L41.3074 1.41539C39.8251 0.837651 37.9027 0.307525 34.9858 0.165784L34.6237 7.61727ZM38.598 8.3663L35.8823 15.3147C35.9406 15.3375 35.9536 15.3453 35.9356 15.3363C35.9155 15.3261 35.8777 15.3055 35.8311 15.275C35.7846 15.2444 35.7498 15.2175 35.7312 15.2021C35.7145 15.1882 35.7252 15.1955 35.7676 15.2381L41.0556 9.97564L46.3435 4.71317C44.8645 3.22704 43.2772 2.18531 41.3138 1.41789L38.598 8.3663ZM41.0556 9.97564L35.7676 15.2381C35.8065 15.2771 35.8111 15.285 35.7952 15.2656C35.7778 15.2444 35.7503 15.2081 35.7201 15.1613C35.69 15.1147 35.6705 15.0782 35.6622 15.0614C35.6549 15.0468 35.6645 15.0641 35.6893 15.1283L42.6496 12.4431L49.6099 9.75802C48.8602 7.81479 47.8391 6.21608 46.3435 4.71317L41.0556 9.97564ZM42.6496 12.4431L35.6909 15.1324C35.7217 15.2121 35.7506 15.2915 35.7854 15.4581C35.8255 15.6504 35.8911 16.0475 35.9203 16.7378L43.3739 16.422L50.8275 16.1062C50.7044 13.2015 50.1922 11.2647 49.6083 9.75386L42.6496 12.4431ZM43.3739 16.422L35.9204 16.7396C36.0092 18.8245 36.0286 19.3638 36.0109 25.0525L43.4712 25.0757L50.9314 25.0989C50.9493 19.3514 50.9311 18.5383 50.8274 16.1044L43.3739 16.422ZM43.4712 25.0757L36.0109 25.0525C35.9932 30.7391 35.9705 31.2804 35.8687 33.3646L43.3201 33.7286L50.7715 34.0925C50.8903 31.6593 50.9135 30.8442 50.9314 25.0989L43.4712 25.0757ZM43.3201 33.7286L35.8686 33.3665C35.8352 34.0535 35.7672 34.4495 35.7255 34.6424C35.6893 34.8102 35.6588 34.8947 35.6227 34.987L42.5711 37.7028L49.5194 40.4186C50.1007 38.9314 50.63 37.0045 50.7716 34.0906L43.3201 33.7286ZM42.5711 37.7028L35.6276 34.9745C35.603 35.0369 35.5938 35.0531 35.6015 35.0378C35.6104 35.0203 35.6301 34.9839 35.6603 34.9378C35.6906 34.8915 35.7178 34.8563 35.7344 34.8364C35.7494 34.8183 35.7435 34.8274 35.7029 34.8677L40.9617 40.1593L46.2205 45.4509C47.7164 43.9643 48.7501 42.3765 49.5145 40.4312L42.5711 37.7028ZM40.9617 40.1593L35.7029 34.8677C35.663 34.9075 35.6542 34.9129 35.6727 34.8978C35.6929 34.8812 35.7284 34.8542 35.7746 34.8244C35.8206 34.7946 35.8569 34.7753 35.874 34.7668C35.8888 34.7594 35.8721 34.7687 35.8091 34.7931L38.4942 41.7534L41.1793 48.7137C43.1265 47.9625 44.7225 46.9397 46.2205 45.4509L40.9617 40.1593ZM38.4942 41.7534L35.8049 34.7947C35.7252 34.8255 35.6459 34.8543 35.4792 34.8891C35.287 34.9293 34.8899 34.9948 34.1996 35.0241L34.5154 42.4777L34.8311 49.9313C37.7358 49.8082 39.6727 49.2959 41.1835 48.7121L38.4942 41.7534ZM34.5154 42.4777L34.1974 35.0242C32.115 35.113 31.5738 35.1324 25.8849 35.1147L25.8617 42.5749L25.8385 50.0352C31.5857 50.053 32.4012 50.0349 34.8333 49.9312L34.5154 42.4777ZM25.8617 42.5749L25.8849 35.1147C20.1949 35.097 19.6569 35.0752 17.5786 34.9727L17.2109 42.4239L16.8432 49.8751C19.2781 49.9952 20.0966 50.0173 25.8385 50.0352L25.8617 42.5749Z" fill="url(#paint0_radial_347_1001)" mask="url(#path-1-outside-1_347_1001)"/>
</g>
<path d="M17.2109 42.4239C15.1233 42.3224 13.9901 41.9714 13.2366 41.6748C12.2382 41.2825 11.527 40.817 10.7791 40.0655C10.0312 39.314 9.56905 38.5999 9.18504 37.599C8.89313 36.8437 8.54919 35.7084 8.46073 33.6202C8.3634 31.3629 8.34464 30.6856 8.36241 24.9676C8.38019 19.2495 8.40525 18.5734 8.51348 16.3147C8.61493 14.227 8.968 13.096 9.26252 12.3404C9.65483 11.342 10.1214 10.6308 10.8719 9.8818C11.6234 9.13494 12.3375 8.67178 13.3394 8.28777C14.0947 7.99587 15.23 7.65193 17.3182 7.56346C19.5766 7.46718 20.2549 7.44842 25.9708 7.46619C31.6889 7.48397 32.365 7.50903 34.6237 7.61727C36.7114 7.71871 37.8424 8.07178 38.598 8.3663C39.5964 8.75652 40.3076 9.22412 41.0556 9.97564C41.8035 10.7272 42.2635 11.4423 42.6496 12.4431C42.9415 13.1985 43.2854 14.3338 43.3739 16.422C43.4702 18.6814 43.4889 19.3576 43.4712 25.0757C43.4534 30.7916 43.4304 31.4698 43.3201 33.7286C43.2186 35.8162 42.8656 36.9493 42.5711 37.7028C42.1787 38.7012 41.7132 39.4125 40.9617 40.1593C40.2102 40.9062 39.495 41.3673 38.4942 41.7534C37.7389 42.0453 36.6036 42.3892 34.5154 42.4777C32.2581 42.574 31.5798 42.5927 25.8617 42.5749C20.1457 42.5572 19.4675 42.5352 17.2109 42.4239" fill="url(#paint1_radial_347_1001)"/>
<path d="M17.2109 42.4239C15.1233 42.3224 13.9901 41.9714 13.2366 41.6748C12.2382 41.2825 11.527 40.817 10.7791 40.0655C10.0312 39.314 9.56905 38.5999 9.18504 37.599C8.89313 36.8437 8.54919 35.7084 8.46073 33.6202C8.3634 31.3629 8.34464 30.6856 8.36241 24.9676C8.38019 19.2495 8.40525 18.5734 8.51348 16.3147C8.61493 14.227 8.968 13.096 9.26252 12.3404C9.65483 11.342 10.1214 10.6308 10.8719 9.8818C11.6234 9.13494 12.3375 8.67178 13.3394 8.28777C14.0947 7.99587 15.23 7.65193 17.3182 7.56346C19.5766 7.46718 20.2549 7.44842 25.9708 7.46619C31.6889 7.48397 32.365 7.50903 34.6237 7.61727C36.7114 7.71871 37.8424 8.07178 38.598 8.3663C39.5964 8.75652 40.3076 9.22412 41.0556 9.97564C41.8035 10.7272 42.2635 11.4423 42.6496 12.4431C42.9415 13.1985 43.2854 14.3338 43.3739 16.422C43.4702 18.6814 43.4889 19.3576 43.4712 25.0757C43.4534 30.7916 43.4304 31.4698 43.3201 33.7286C43.2186 35.8162 42.8656 36.9493 42.5711 37.7028C42.1787 38.7012 41.7132 39.4125 40.9617 40.1593C40.2102 40.9062 39.495 41.3673 38.4942 41.7534C37.7389 42.0453 36.6036 42.3892 34.5154 42.4777C32.2581 42.574 31.5798 42.5927 25.8617 42.5749C20.1457 42.5572 19.4675 42.5352 17.2109 42.4239" fill="url(#paint2_radial_347_1001)"/>
<path d="M21.6057 25.0813C21.6132 22.6802 23.5651 20.7393 25.9662 20.7468C28.3673 20.7543 30.3082 22.7073 30.3007 25.1083C30.2933 27.5094 28.3402 29.4503 25.9392 29.4428C23.5381 29.4354 21.5982 27.4824 21.6057 25.0813V25.0813ZM19.2552 25.074C19.2437 28.773 22.2329 31.7808 25.9319 31.7923C29.6309 31.8038 32.6386 28.8147 32.6501 25.1156C32.6616 21.4166 29.6725 18.4089 25.9735 18.3974C22.2745 18.3859 19.2668 21.3748 19.2553 25.074L19.2552 25.074ZM31.3719 18.1486C31.3708 18.4582 31.4615 18.7611 31.6326 19.0191C31.8037 19.2771 32.0474 19.4785 32.333 19.598C32.6186 19.7175 32.9332 19.7496 33.237 19.6903C33.5408 19.6309 33.8202 19.4828 34.0399 19.2647C34.2595 19.0466 34.4096 18.7682 34.471 18.4648C34.5325 18.1614 34.5026 17.8466 34.3851 17.5602C34.2677 17.2738 34.0679 17.0286 33.8111 16.8558C33.5544 16.6829 33.2521 16.59 32.9425 16.5889L32.9419 16.5889C32.5269 16.5878 32.1285 16.7515 31.8342 17.0439C31.5398 17.3363 31.3735 17.7337 31.3719 18.1486V18.1486ZM20.6503 35.6953C19.3788 35.6334 18.6883 35.4194 18.2295 35.2391C17.6213 35.0001 17.1877 34.7164 16.7323 34.2588C16.2769 33.8012 15.9955 33.3662 15.7614 32.7565C15.5837 32.2968 15.3741 31.6048 15.3202 30.333C15.2612 28.9579 15.2499 28.5449 15.2607 25.0618C15.2716 21.5787 15.2865 21.1669 15.353 19.7911C15.4148 18.5196 15.6304 17.8302 15.8092 17.3703C16.0482 16.7621 16.3319 16.3285 16.7895 15.8731C17.2471 15.4177 17.682 15.1363 18.2928 14.9021C18.7524 14.7245 19.4445 14.5148 20.7163 14.461C22.0913 14.402 22.5044 14.3907 25.9859 14.4015C29.4675 14.4123 29.8809 14.4271 31.2567 14.494C32.5281 14.5558 33.2175 14.7714 33.6774 14.9502C34.2856 15.1881 34.7192 15.4728 35.1746 15.9305C35.63 16.3881 35.9104 16.8241 36.1456 17.4338C36.3232 17.8934 36.5329 18.5855 36.5867 19.8573C36.6457 21.2335 36.657 21.6454 36.6462 25.1285C36.6354 28.6116 36.6215 29.0234 36.554 30.3992C36.4921 31.6707 36.2771 32.3612 36.0978 32.82C35.8588 33.4282 35.5751 33.8618 35.1175 34.3161C34.6599 34.7705 34.2239 35.0519 33.6142 35.2871C33.1545 35.4647 32.4625 35.6744 31.1906 35.7282C29.8156 35.7872 29.4026 35.7985 25.9194 35.7877C22.4363 35.7769 22.0245 35.763 20.6503 35.6955L20.6503 35.6953ZM20.6156 12.1141C19.2269 12.173 18.2774 12.3902 17.4478 12.71C16.5892 13.0403 15.8608 13.4848 15.1326 14.2073C14.4045 14.9298 13.9567 15.6555 13.621 16.5131C13.296 17.3412 13.0729 18.2888 13.0054 19.6771C12.9368 21.0676 12.9207 21.5122 12.9096 25.0543C12.8986 28.5963 12.912 29.041 12.9719 30.4319C13.0308 31.8207 13.2481 32.7696 13.5679 33.5997C13.8982 34.4583 14.3416 35.1882 15.0652 35.9149C15.7887 36.6416 16.5134 37.0899 17.371 37.4265C18.2001 37.7515 19.1467 37.9746 20.535 38.0422C21.9262 38.1097 22.3701 38.1269 25.9121 38.1379C29.4542 38.1489 29.8989 38.1355 31.2898 38.0756C32.6786 38.0167 33.6274 37.7995 34.4576 37.4796C35.3162 37.1484 36.0446 36.7049 36.7727 35.9824C37.5009 35.2598 37.9478 34.5331 38.2844 33.6765C38.6094 32.8484 38.8335 31.9008 38.9 30.5125C38.9676 29.121 38.9837 28.6774 38.9947 25.1354C39.0057 21.5933 38.9924 21.1486 38.9335 19.7577C38.8745 18.3689 38.6573 17.4195 38.3375 16.5899C38.0062 15.7313 37.5627 15.0029 36.8402 14.2748C36.1177 13.5466 35.391 13.0988 34.5354 12.7632C33.7063 12.4382 32.7587 12.214 31.3714 12.1475C29.9807 12.0796 29.5364 12.0628 25.9948 12.0518C22.4533 12.0408 22.0078 12.0541 20.6161 12.1141" fill="#E7E7E7"/>
<g filter="url(#filter1_iii_347_1001)">
<path d="M17.2109 42.4239C15.1233 42.3224 13.9901 41.9714 13.2366 41.6748C12.2382 41.2825 11.527 40.817 10.7791 40.0655C10.0312 39.314 9.56905 38.5999 9.18504 37.599C8.89313 36.8437 8.54919 35.7084 8.46073 33.6202C8.3634 31.3629 8.34464 30.6856 8.36241 24.9676C8.38019 19.2495 8.40525 18.5734 8.51348 16.3147C8.61493 14.227 8.968 13.096 9.26252 12.3404C9.65483 11.342 10.1214 10.6308 10.8719 9.8818C11.6234 9.13494 12.3375 8.67178 13.3394 8.28777C14.0947 7.99587 15.23 7.65193 17.3182 7.56346C19.5766 7.46718 20.2549 7.44842 25.9708 7.46619C31.6889 7.48397 32.365 7.50903 34.6237 7.61727C36.7114 7.71871 37.8424 8.07178 38.598 8.3663C39.5964 8.75652 40.3076 9.22412 41.0556 9.97564C41.8035 10.7272 42.2635 11.4423 42.6496 12.4431C42.9415 13.1985 43.2854 14.3338 43.3739 16.422C43.4702 18.6814 43.4889 19.3576 43.4712 25.0757C43.4534 30.7916 43.4304 31.4698 43.3201 33.7286C43.2186 35.8162 42.8656 36.9493 42.5711 37.7028C42.1787 38.7012 41.7132 39.4125 40.9617 40.1593C40.2102 40.9062 39.495 41.3673 38.4942 41.7534C37.7389 42.0453 36.6036 42.3892 34.5154 42.4777C32.2581 42.574 31.5798 42.5927 25.8617 42.5749C20.1457 42.5572 19.4675 42.5352 17.2109 42.4239" fill="white" fill-opacity="0.01"/>
</g>
<defs>
<filter id="filter0_di_347_1001" x="0.00014782" y="-0.597557" width="59.0044" height="61.0958" filterUnits="userSpaceOnUse" color-interpolation-filters="sRGB">
<feFlood flood-opacity="0" result="BackgroundImageFix"/>
<feColorMatrix in="SourceAlpha" type="matrix" values="0 0 0 0 0 0 0 0 0 0 0 0 0 0 0 0 0 0 127 0" result="hardAlpha"/>
<feOffset dx="3.58534" dy="5.97557"/>
<feGaussianBlur stdDeviation="2.24084"/>
<feColorMatrix type="matrix" values="0 0 0 0 0 0 0 0 0 0 0 0 0 0 0 0 0 0 0.25 0"/>
<feBlend mode="normal" in2="BackgroundImageFix" result="effect1_dropShadow_347_1001"/>
<feBlend mode="normal" in="SourceGraphic" in2="effect1_dropShadow_347_1001" result="shape"/>
<feColorMatrix in="SourceAlpha" type="matrix" values="0 0 0 0 0 0 0 0 0 0 0 0 0 0 0 0 0 0 127 0" result="hardAlpha"/>
<feOffset dy="-0.597557"/>
<feGaussianBlur stdDeviation="0.448168"/>
<feComposite in2="hardAlpha" operator="arithmetic" k2="-1" k3="1"/>
<feColorMatrix type="matrix" values="0 0 0 0 0 0 0 0 0 0 0 0 0 0 0 0 0 0 1 0"/>
<feBlend mode="normal" in2="shape" result="effect2_innerShadow_347_1001"/>
</filter>
<filter id="filter1_iii_347_1001" x="6.40653" y="6.80999" width="38.2131" height="36.562" filterUnits="userSpaceOnUse" color-interpolation-filters="sRGB">
<feFlood flood-opacity="0" result="BackgroundImageFix"/>
<feBlend mode="normal" in="SourceGraphic" in2="BackgroundImageFix" result="shape"/>
<feColorMatrix in="SourceAlpha" type="matrix" values="0 0 0 0 0 0 0 0 0 0 0 0 0 0 0 0 0 0 127 0" result="hardAlpha"/>
<feOffset dx="1.82161" dy="0.790889"/>
<feGaussianBlur stdDeviation="0.571039"/>
<feComposite in2="hardAlpha" operator="arithmetic" k2="-1" k3="1"/>
<feColorMatrix type="matrix" values="0 0 0 0 0 0 0 0 0 0 0 0 0 0 0 0 0 0 0.35 0"/>
<feBlend mode="normal" in2="shape" result="effect1_innerShadow_347_1001"/>
<feColorMatrix in="SourceAlpha" type="matrix" values="0 0 0 0 0 0 0 0 0 0 0 0 0 0 0 0 0 0 127 0" result="hardAlpha"/>
<feOffset dx="-1.94991" dy="-0.64997"/>
<feGaussianBlur stdDeviation="1.13745"/>
<feComposite in2="hardAlpha" operator="arithmetic" k2="-1" k3="1"/>
<feColorMatrix type="matrix" values="0 0 0 0 1 0 0 0 0 1 0 0 0 0 1 0 0 0 0.25 0"/>
<feBlend mode="normal" in2="effect1_innerShadow_347_1001" result="effect2_innerShadow_347_1001"/>
<feColorMatrix in="SourceAlpha" type="matrix" values="0 0 0 0 0 0 0 0 0 0 0 0 0 0 0 0 0 0 127 0" result="hardAlpha"/>
<feOffset dx="-0.974955"/>
<feGaussianBlur stdDeviation="0.324985"/>
<feComposite in2="hardAlpha" operator="arithmetic" k2="-1" k3="1"/>
<feColorMatrix type="matrix" values="0 0 0 0 1 0 0 0 0 1 0 0 0 0 1 0 0 0 1 0"/>
<feBlend mode="overlay" in2="effect2_innerShadow_347_1001" result="effect3_innerShadow_347_1001"/>
</filter>
<radialGradient id="paint0_radial_347_1001" cx="0" cy="0" r="1" gradientTransform="matrix(32.5882 24.6382 -24.6373 32.3072 10.8155 12.1911)" gradientUnits="userSpaceOnUse">
<stop stop-color="#FDF5E5"/>
<stop offset="0.727057" stop-color="#CEA662"/>
<stop offset="1" stop-color="#583C0D"/>
</radialGradient>
<radialGradient id="paint1_radial_347_1001" cx="0" cy="0" r="1" gradientUnits="userSpaceOnUse" gradientTransform="translate(10.5824 41.7583) rotate(0.178125) scale(44.5753)">
<stop offset="0.09" stop-color="#FA8F21"/>
<stop offset="0.78" stop-color="#D82D7E"/>
</radialGradient>
<radialGradient id="paint2_radial_347_1001" cx="0" cy="0" r="1" gradientUnits="userSpaceOnUse" gradientTransform="translate(32.6323 40.6995) rotate(0.178125) scale(39.2267)">
<stop offset="0.64" stop-color="#8C3AAA" stop-opacity="0"/>
<stop offset="1" stop-color="#8C3AAA"/>
</radialGradient>
</defs>
</svg>
